<svg width="300" height="30" viewBox="0 0 300 30" fill="none" xmlns="http://www.w3.org/2000/svg">
<path d="M29.3253 12.0574H24.9904V26.921H29.3253V12.0574Z" fill="#F58220"/>
<path d="M29.3253 6.4377H24.9904V9.94009H29.3253V6.4377Z" fill="#F58220"/>
<path d="M17.3684 6.4377H15.9402L10.8445 20.5765L5.78469 6.4377H4.33493H0V26.921H4.33493V13.5717L9.50239 26.921H12.2584L17.3684 13.586V26.921H21.6962V6.4377H17.3684Z" fill="#F58220"/>
<path d="M36.5167 14.6341V12.0862H32.1818V26.9499H36.5167V18.3446C36.5167 18.3446 36.6531 15.0862 41.4976 15.4164V12.0575C41.4976 12.0575 37.7225 11.9355 36.5167 14.6341Z" fill="#F58220"/>
<path d="M50.1746 12.0861C43.8445 12.0861 43.6148 15.6962 43.6148 17.0096H47.1746C47.1746 17.0096 47.1244 14.6124 50.0526 14.6124C52.9808 14.6124 52.9019 16.3277 52.9019 16.5287C52.9019 16.7297 52.8516 18.0718 48.9689 18.4593C45.0861 18.8469 42.9402 19.9593 42.9402 22.9091C42.9402 25.8588 45.2368 26.921 48.2153 26.921C51.1937 26.921 52.9091 25.1052 52.9091 25.1052V26.921H56.5406V15.7177C56.5406 15.7177 56.5119 12.0861 50.1818 12.0861H50.1746ZM52.7153 20.9282C52.7153 21.6818 52.5358 22.4426 52.1411 23.0813C51.689 23.8134 50.9138 24.6387 49.5287 24.8612C48.3947 25.0407 47.7488 24.6459 47.3827 24.1579C46.7727 23.3469 46.8803 22.1842 47.5837 21.4665C48.2942 20.7416 49.7512 19.9808 52.7224 19.9163V20.921L52.7153 20.9282Z" fill="#F58220"/>
<path d="M66.689 24.2081C64.2775 24.2081 62.8995 22.8301 62.8995 20.5909H73.7009C73.7009 20.5909 73.5718 12.0861 66.3876 12.0861C59.2033 12.0861 59.2033 19.299 59.2033 20.4186C59.2033 21.5383 60.1938 27.3875 66.4521 27.3875C72.7105 27.3875 73.7009 22.1411 73.7009 22.1411H69.567C69.567 22.1411 69.0933 24.2081 66.6818 24.2081H66.689ZM66.2584 14.9139C69.6603 14.9139 69.6603 18.4593 69.6603 18.4593H62.8636C62.8636 18.4593 62.8636 14.9139 66.2655 14.9139H66.2584Z" fill="#F58220"/>
<path d="M140.333 24.2081C137.921 24.2081 136.543 22.8301 136.543 20.5909H147.344C147.344 20.5909 147.215 12.0861 140.031 12.0861C132.847 12.0861 132.847 19.299 132.847 20.4186C132.847 21.5383 133.837 27.3875 140.096 27.3875C146.354 27.3875 147.344 22.1411 147.344 22.1411H143.211C143.211 22.1411 142.737 24.2081 140.325 24.2081H140.333ZM139.902 14.9139C143.304 14.9139 143.304 18.4593 143.304 18.4593H136.507C136.507 18.4593 136.507 14.9139 139.909 14.9139H139.902Z" fill="#F58220"/>
<path d="M93.8397 6.4808H90.0933L82.177 26.9282H86.311L88.0766 21.976H95.5191L97.1986 26.9282H101.849L93.8469 6.4808H93.8397ZM89.0957 19.1196L91.8158 11.555L94.5 19.1124L89.0957 19.1267V19.1196Z" fill="#F58220"/>
<path d="M102.474 21.9617H106.263C106.263 21.9617 106.263 24.8612 109.392 24.8612C112.522 24.8612 112.163 22.8875 112.163 22.5215C112.163 22.1555 111.108 21.2009 109.098 20.8062C107.089 20.4115 102.84 19.421 102.84 16.3564C102.84 13.2918 105.28 12.0717 109.069 12.0717C112.859 12.0717 115.694 14.4473 115.694 16.1914H111.474C111.474 16.1914 111.208 14.4473 109.084 14.4473C106.959 14.4473 106.895 15.6674 106.895 16.1627C106.895 16.6579 107.225 17.8134 112.299 18.4665C117.373 19.1196 117.208 26.921 109.923 26.921C102.639 26.921 102.474 21.9617 102.474 21.9617Z" fill="#F58220"/>
<path d="M117.61 21.9617H121.4C121.4 21.9617 121.4 24.8612 124.529 24.8612C127.658 24.8612 127.299 22.8875 127.299 22.5215C127.299 22.1555 126.244 21.2009 124.234 20.8062C122.225 20.4115 117.976 19.421 117.976 16.3564C117.976 13.2918 120.416 12.0717 124.206 12.0717C127.995 12.0717 130.83 14.4473 130.83 16.1914H126.61C126.61 16.1914 126.345 14.4473 124.22 14.4473C122.096 14.4473 122.031 15.6674 122.031 16.1627C122.031 16.6579 122.361 17.8134 127.435 18.4665C132.51 19.1196 132.344 26.921 125.06 26.921C117.775 26.921 117.61 21.9617 117.61 21.9617Z" fill="#F58220"/>
<path d="M157.816 15.2153V12.366H155.017V7.77989H150.682V12.3588H148.256V15.2081H150.682V22.6435C150.682 22.6435 150.179 26.921 153.452 26.921H157.816V23.8852C157.816 23.8852 155.017 24.4808 155.017 22.6507V15.2153H157.816Z" fill="#F58220"/>
<path d="M167.742 17.0958C167.742 22.2345 171.56 27.3876 178.084 27.3876C184.608 27.3876 184.335 25.4211 184.335 25.4211L183.158 22.6436C183.158 22.6436 171.84 26.3972 171.84 17.3685C171.84 8.33978 178.852 9.10773 182.045 9.8039L183.431 7.09816C183.431 7.09816 168.502 2.37567 167.742 17.0958Z" fill="#043F7B"/>
<path d="M206.411 6.38058V26.9212H210.581V10.5074L218.749 26.9212H224.541V6.38058H220.608V22.7442L211.995 6.38058H206.411Z" fill="#043F7B"/>
<path d="M244.636 6.38058H228.811V9.91885H234.158V26.9212H238.5V9.91885H242.806L244.636 6.38058Z" fill="#043F7B"/>
<path d="M252.287 18.1653H259.593V14.4763H253.507L252.287 15.9547V9.86862H259.191L260.663 6.43082H252.287V6.38058H248.081V6.43082V9.86862V23.4834V24.8112V26.9212H259.191L260.663 23.4834H252.287V18.1653Z" fill="#043F7B"/>
<path d="M193.012 18.1653H200.318V14.4763H194.232L193.012 15.9547V9.86862H199.916L201.388 6.43082H193.012V6.38058H188.806V6.43082V9.86862V23.4834V24.8112V26.9212H199.916L201.388 23.4834H193.012V18.1653Z" fill="#043F7B"/>
<path d="M278.045 23.4833L274.651 18.0646C276.71 17.4761 279.144 16.0048 279.144 12.3732C279.144 6.0646 273.079 6.38039 273.079 6.38039H265.615V26.9211H269.821V18.4593H270.632L275.842 26.9211H279.588L281.34 23.4833H278.038H278.045ZM269.821 15.5957V9.86843H272.67C272.67 9.86843 275.684 9.78231 275.684 12.4163C275.684 15.0502 273.323 15.5885 272.756 15.5885H269.828L269.821 15.5957Z" fill="#043F7B"/>
<path d="M286.651 5.84453L291.732 1.28711H293.447V9.38998C293.447 9.38998 292.048 9.54788 292.048 11.945C292.048 14.3421 293.447 14.4354 293.447 14.4354V22.8972H287.024V21.8637L291.057 20.1555V5.23448L289.672 5.84453H286.651Z" fill="#043F7B"/>
<path d="M294.208 1.28711H296.289V20.1555L299.871 21.8637V22.8972H294.208V14.012C294.208 14.012 292.794 13.6962 292.794 11.8876C292.794 10.079 293.454 9.92826 294.208 9.59094V1.28711Z" fill="#043F7B"/>
</svg>
